<svg width="500" height="500" viewBox="0 0 500 500" fill="none" xmlns="http://www.w3.org/2000/svg">
<path d="M433 60H67C62.286 60 59.9289 60 58.4645 61.4645C57 62.9289 57 65.286 57 70V207.5C57 212.214 57 214.571 58.4645 216.036C59.9289 217.5 62.286 217.5 67 217.5H433C437.714 217.5 440.071 217.5 441.536 216.036C443 214.571 443 212.214 443 207.5V70C443 65.286 443 62.9289 441.536 61.4645C440.071 60 437.714 60 433 60Z" stroke="black" stroke-width="30"/>
<path d="M207.049 281H67C62.286 281 59.9289 281 58.4645 282.464C57 283.929 57 286.286 57 291V429C57 433.714 57 436.071 58.4645 437.536C59.9289 439 62.286 439 67 439H207.049C211.763 439 214.12 439 215.584 437.536C217.049 436.071 217.049 433.714 217.049 429V291C217.049 286.286 217.049 283.929 215.584 282.464C214.12 281 211.763 281 207.049 281Z" stroke="black" stroke-width="30"/>
<path d="M433 281H298.6C293.886 281 291.529 281 290.064 282.464C288.6 283.929 288.6 286.286 288.6 291V429C288.6 433.714 288.6 436.071 290.064 437.536C291.529 439 293.886 439 298.6 439H433C437.714 439 440.071 439 441.536 437.536C443 436.071 443 433.714 443 429V291C443 286.286 443 283.929 441.536 282.464C440.071 281 437.714 281 433 281Z" stroke="black" stroke-width="30"/>
</svg>
